<svg width="167" height="179" fill="none" xmlns="http://www.w3.org/2000/svg"><path d="M10.12 178.14C3.373 174.62 0 170.073 0 164.5s2.933-14.153 8.8-25.74c5.867-11.733 13.713-25.153 23.54-40.26-8.8-.587-19.58-.88-32.34-.88 3.52-9.533 12.027-14.3 25.52-14.3 2.933 0 8.36.44 16.28 1.32 16.427-23.76 31.753-43.78 45.98-60.06C102.007 8.3 111.467.16 116.16.16c3.813 0 8.8 2.86 14.96 8.58-2.933 2.2-7.26 11.367-12.98 27.5-5.573 15.987-10.56 33.587-14.96 52.8-4.253 19.067-6.38 34.467-6.38 46.2 0 5.867.587 10.267 1.76 13.2 1.32 2.787 3.3 4.18 5.94 4.18 3.667 0 7.993-2.64 12.98-7.92 4.987-5.427 10.413-13.713 16.28-24.86l3.96 4.18c-4.693 12.467-10.707 22.513-18.04 30.14-7.333 7.48-14.96 11.22-22.88 11.22-6.747 0-11.66-2.933-14.74-8.8-3.08-5.867-4.62-14.3-4.62-25.3 0-7.187.953-16.28 2.86-27.28-7.48-1.173-17.967-2.567-31.46-4.18-13.64 24.2-26.547 50.307-38.72 78.32zM82.5 93.22c2.64-12.32 6.087-25.08 10.34-38.28 4.253-13.2 8.58-25.007 12.98-35.42-6.453 5.133-14.007 13.64-22.66 25.52C74.507 56.92 65.413 71 55.88 87.28l16.5 3.52c4.4 1.173 7.773 1.98 10.12 2.42zm72.129 67.98c-3.227 0-5.647-.807-7.26-2.42-1.613-1.76-2.42-3.74-2.42-5.94 0-2.493 1.54-5.06 4.62-7.7 3.227-2.64 6.307-3.96 9.24-3.96 1.907 0 3.593.587 5.06 1.76 1.467 1.027 2.2 2.713 2.2 5.06 0 1.32-.513 3.08-1.54 5.28-.88 2.053-2.2 3.887-3.96 5.5-1.613 1.613-3.593 2.42-5.94 2.42z" fill="#000"/></svg>